<svg xmlns="http://www.w3.org/2000/svg" version="1.1" xmlns:xlink="http://www.w3.org/1999/xlink" xmlns:svgjs="http://svgjs.dev/svgjs" width="1000" height="623" viewBox="0 0 1000 623"><g transform="matrix(1,0,0,1,-0.6060606060606233,0.2522267206477409)"><svg viewBox="0 0 396 247" data-background-color="#ffffff" preserveAspectRatio="xMidYMid meet" height="623" width="1000" xmlns="http://www.w3.org/2000/svg" xmlns:xlink="http://www.w3.org/1999/xlink"><g id="tight-bounds" transform="matrix(1,0,0,1,0.2400000000000091,-0.09999999999999432)"><svg viewBox="0 0 395.52 247.2" height="247.2" width="395.52"><g><svg></svg></g><g><svg viewBox="0 0 395.52 247.2" height="247.2" width="395.52"><g transform="matrix(1,0,0,1,39.55199999999999,89.5574686248331)"><svg viewBox="0 0 316.416 68.08506275033378" height="68.08506275033378" width="316.416"><g><svg viewBox="0 0 316.416 68.08506275033378" height="68.08506275033378" width="316.416"><g><svg viewBox="0 0 316.416 68.08506275033378" height="68.08506275033378" width="316.416"><g><svg viewBox="0 0 316.416 68.08506275033378" height="68.08506275033378" width="316.416"><g id="textblocktransform"><svg viewBox="0 0 316.416 68.08506275033378" height="68.08506275033378" width="316.416" id="textblock"><g><svg viewBox="0 0 316.416 68.08506275033378" height="68.08506275033378" width="316.416"><g transform="matrix(1,0,0,1,0,0)"><svg width="316.416" viewBox="1.75 -47 226.67999267578125 48.349998474121094" height="68.08506275033378" data-palette-color="#3c2c32"><path d="M42.05-41.5Q43.6-41.2 44.38-40.45 45.15-39.7 45.15-38.7L45.15-38.7Q45.15-37.05 44.23-36.3 43.3-35.55 41.3-35.7L41.3-35.7Q36.8-36.05 34.27-36.18 31.75-36.3 27.65-36.35L27.65-36.35Q25.8-27.15 24.25-17.85L24.25-17.85Q23.7-14.45 23.1-9.98 22.5-5.5 22.3-2.75L22.3-2.75Q22.2-1.3 21.1-0.53 20 0.25 18.45 0.25L18.45 0.25Q16.8 0.25 15.9-0.55 15-1.35 15-2.65L15-2.65Q15-3.85 15.38-6.63 15.75-9.4 16.25-12.45L16.25-12.45Q16.8-15.5 17.1-17.75L17.1-17.75Q17.65-21.55 18.35-25.3 19.05-29.05 19.75-32.4L19.75-32.4Q19.9-33.15 20.1-34.13 20.3-35.1 20.55-36.3L20.55-36.3Q15.65-36.15 12.85-35.5 10.05-34.85 8.88-33.68 7.7-32.5 7.7-30.65L7.7-30.65Q7.7-28.95 8.7-27.4L8.7-27.4Q8.9-27.05 8.9-26.65L8.9-26.65Q8.9-25.7 7.78-24.88 6.65-24.05 5.45-24.05L5.45-24.05Q4.6-24.05 4.05-24.55L4.05-24.55Q3.05-25.4 2.4-26.98 1.75-28.55 1.75-30.55L1.75-30.55Q1.75-34.8 4.53-37.38 7.3-39.95 12.98-41.15 18.65-42.35 27.55-42.35L27.55-42.35Q33.05-42.35 36.33-42.15 39.6-41.95 42.05-41.5L42.05-41.5ZM39.3 0.25Q37.4 0.25 36.62-1.75 35.85-3.75 35.85-8.15L35.85-8.15Q35.85-14.65 37.7-20.5L37.7-20.5Q38.15-21.95 39.17-22.63 40.2-23.3 42.05-23.3L42.05-23.3Q43.05-23.3 43.45-23.05 43.85-22.8 43.85-22.1L43.85-22.1Q43.85-21.3 43.1-18.5L43.1-18.5Q42.6-16.5 42.3-15 42-13.5 41.8-11.3L41.8-11.3Q43.45-15.6 45.5-18.3 47.55-21 49.52-22.15 51.5-23.3 53.15-23.3L53.15-23.3Q56.4-23.3 56.4-20.05L56.4-20.05Q56.4-19.4 55.95-16.9L55.95-16.9Q55.55-14.9 55.55-14.4L55.55-14.4Q55.55-12.65 56.8-12.65L56.8-12.65Q58.2-12.65 60.4-14.85L60.4-14.85Q61.05-15.5 61.75-15.5L61.75-15.5Q62.4-15.5 62.77-14.93 63.15-14.35 63.15-13.4L63.15-13.4Q63.15-11.55 62.15-10.5L62.15-10.5Q60.75-9.05 58.87-8.03 57-7 54.9-7L54.9-7Q52.25-7 50.87-8.35 49.5-9.7 49.5-12L49.5-12Q49.5-12.75 49.65-13.5L49.65-13.5Q49.75-14.5 49.75-14.85L49.75-14.85Q49.75-15.65 49.2-15.65L49.2-15.65Q48.45-15.65 47.22-13.98 46-12.3 44.8-9.55 43.6-6.8 42.85-3.75L42.85-3.75Q42.3-1.4 41.57-0.58 40.85 0.25 39.3 0.25L39.3 0.25ZM64.65 0.25Q61.55 0.25 59.7-2 57.85-4.25 57.85-7.9L57.85-7.9Q57.85-11.9 59.7-15.48 61.55-19.05 64.62-21.23 67.7-23.4 71.15-23.4L71.15-23.4Q72.25-23.4 72.62-22.98 73-22.55 73.25-21.45L73.25-21.45Q74.3-21.65 75.45-21.65L75.45-21.65Q77.9-21.65 77.9-19.9L77.9-19.9Q77.9-18.85 77.15-14.9L77.15-14.9Q76-9.15 76-6.9L76-6.9Q76-6.15 76.37-5.7 76.75-5.25 77.34-5.25L77.34-5.25Q78.3-5.25 79.65-6.48 81-7.7 83.3-10.45L83.3-10.45Q83.9-11.15 84.65-11.15L84.65-11.15Q85.3-11.15 85.67-10.55 86.05-9.95 86.05-8.9L86.05-8.9Q86.05-6.9 85.09-5.8L85.09-5.8Q83.05-3.25 80.75-1.5 78.45 0.25 76.3 0.25L76.3 0.25Q74.65 0.25 73.27-0.88 71.9-2 71.2-3.95L71.2-3.95Q68.59 0.25 64.65 0.25L64.65 0.25ZM66.45-4.8Q67.55-4.8 68.55-6.1 69.55-7.4 70-9.55L70-9.55 71.84-18.75Q69.75-18.7 67.97-17.18 66.2-15.65 65.15-13.15 64.09-10.65 64.09-7.85L64.09-7.85Q64.09-6.3 64.72-5.55 65.34-4.8 66.45-4.8L66.45-4.8ZM85.54 0.25Q83.64 0.25 82.87-1.75 82.09-3.75 82.09-8.15L82.09-8.15Q82.09-14.65 83.94-20.5L83.94-20.5Q84.39-21.95 85.42-22.63 86.44-23.3 88.29-23.3L88.29-23.3Q89.29-23.3 89.69-23.05 90.09-22.8 90.09-22.1L90.09-22.1Q90.09-21.3 89.34-18.5L89.34-18.5Q88.84-16.5 88.54-15 88.24-13.5 88.04-11.3L88.04-11.3Q89.69-15.6 91.74-18.3 93.79-21 95.77-22.15 97.74-23.3 99.39-23.3L99.39-23.3Q102.64-23.3 102.64-20.05L102.64-20.05Q102.64-18.1 101.54-13L101.54-13Q100.59-8.65 100.59-7.25L100.59-7.25Q100.59-5.25 102.04-5.25L102.04-5.25Q103.04-5.25 104.42-6.48 105.79-7.7 108.09-10.45L108.09-10.45Q108.69-11.15 109.44-11.15L109.44-11.15Q110.09-11.15 110.47-10.55 110.84-9.95 110.84-8.9L110.84-8.9Q110.84-6.9 109.89-5.8L109.89-5.8Q107.74-3.15 105.27-1.45 102.79 0.25 99.64 0.25L99.64 0.25Q97.09 0.25 95.79-1.23 94.49-2.7 94.49-5.5L94.49-5.5Q94.49-6.9 95.19-10.5L95.19-10.5Q95.84-13.65 95.84-14.85L95.84-14.85Q95.84-15.65 95.29-15.65L95.29-15.65Q94.64-15.65 93.47-13.98 92.29-12.3 91.07-9.55 89.84-6.8 89.09-3.75L89.09-3.75Q88.54-1.4 87.82-0.58 87.09 0.25 85.54 0.25L85.54 0.25ZM116.09 1.35Q113.49 1.35 112.11 0.15 110.74-1.05 110.74-2.55L110.74-2.55Q110.74-3.85 111.69-4.8 112.64-5.75 114.49-5.75L114.49-5.75Q115.14-5.75 116.02-5.63 116.89-5.5 117.34-5.45L117.34-5.45Q117.29-6.75 116.77-7.9 116.24-9.05 115.44-10.13 114.64-11.2 113.94-12L113.94-12Q112.39-9.05 110.86-7.1 109.34-5.15 107.54-3.4L107.54-3.4Q106.64-2.5 105.64-2.5L105.64-2.5Q104.84-2.5 104.34-3.08 103.84-3.65 103.84-4.5L103.84-4.5Q103.84-5.5 104.54-6.35L104.54-6.35 105.19-7.15Q107.94-10.55 109.34-12.75L109.34-12.75Q110.19-14.2 111.34-16.63 112.49-19.05 113.59-21.65L113.59-21.65Q114.54-23.85 117.54-23.85L117.54-23.85Q118.94-23.85 119.49-23.6 120.04-23.35 120.04-22.8L120.04-22.8Q120.04-22.5 119.84-21.85 119.64-21.2 119.29-20.55L119.29-20.55Q118.39-18.75 118.39-17.5L118.39-17.5Q118.39-16.75 118.92-15.85 119.44-14.95 120.54-13.6L120.54-13.6Q122.14-11.5 122.97-10.03 123.79-8.55 123.79-6.8L123.79-6.8Q123.79-6.3 123.69-5.4L123.69-5.4Q126.14-6.35 129.44-10.45L129.44-10.45Q130.04-11.15 130.79-11.15L130.79-11.15Q131.44-11.15 131.81-10.55 132.19-9.95 132.19-8.9L132.19-8.9Q132.19-7 131.24-5.8L131.24-5.8Q128.74-2.7 126.47-1.58 124.19-0.45 120.84-0.35L120.84-0.35Q118.84 1.35 116.09 1.35L116.09 1.35ZM147.09-11.15Q147.74-11.15 148.11-10.55 148.49-9.95 148.49-8.9L148.49-8.9Q148.49-6.9 147.54-5.8L147.54-5.8Q145.39-3.15 142.86-1.45 140.34 0.25 137.14 0.25L137.14 0.25Q132.74 0.25 130.61-3.75 128.49-7.75 128.49-14.1L128.49-14.1Q128.49-20.2 130.06-28 131.64-35.8 134.71-41.4 137.79-47 142.04-47L142.04-47Q144.44-47 145.81-44.78 147.19-42.55 147.19-38.4L147.19-38.4Q147.19-32.45 143.89-24.6 140.59-16.75 134.94-9.05L134.94-9.05Q135.29-7 136.09-6.13 136.89-5.25 138.19-5.25L138.19-5.25Q140.24-5.25 141.79-6.43 143.34-7.6 145.74-10.45L145.74-10.45Q146.34-11.15 147.09-11.15L147.09-11.15ZM140.94-42.05Q139.79-42.05 138.34-37.9 136.89-33.75 135.79-27.6 134.69-21.45 134.59-15.8L134.59-15.8Q138.14-21.65 140.24-27.53 142.34-33.4 142.34-38.25L142.34-38.25Q142.34-42.05 140.94-42.05L140.94-42.05ZM150.09 0.25Q146.99 0.25 145.14-2 143.29-4.25 143.29-7.9L143.29-7.9Q143.29-11.9 145.14-15.48 146.99-19.05 150.06-21.23 153.14-23.4 156.59-23.4L156.59-23.4Q157.69-23.4 158.06-22.98 158.44-22.55 158.69-21.45L158.69-21.45Q159.74-21.65 160.89-21.65L160.89-21.65Q163.34-21.65 163.34-19.9L163.34-19.9Q163.34-18.85 162.59-14.9L162.59-14.9Q161.44-9.15 161.44-6.9L161.44-6.9Q161.44-6.15 161.81-5.7 162.19-5.25 162.79-5.25L162.79-5.25Q163.74-5.25 165.09-6.48 166.44-7.7 168.74-10.45L168.74-10.45Q169.34-11.15 170.09-11.15L170.09-11.15Q170.74-11.15 171.11-10.55 171.49-9.95 171.49-8.9L171.49-8.9Q171.49-6.9 170.54-5.8L170.54-5.8Q168.49-3.25 166.19-1.5 163.89 0.25 161.74 0.25L161.74 0.25Q160.09 0.25 158.71-0.88 157.34-2 156.64-3.95L156.64-3.95Q154.04 0.25 150.09 0.25L150.09 0.25ZM151.89-4.8Q152.99-4.8 153.99-6.1 154.99-7.4 155.44-9.55L155.44-9.55 157.29-18.75Q155.19-18.7 153.41-17.18 151.64-15.65 150.59-13.15 149.54-10.65 149.54-7.85L149.54-7.85Q149.54-6.3 150.16-5.55 150.79-4.8 151.89-4.8L151.89-4.8ZM189.73-11.15Q190.38-11.15 190.76-10.55 191.13-9.95 191.13-8.9L191.13-8.9Q191.13-6.9 190.18-5.8L190.18-5.8Q188.03-3.15 185.48-1.45 182.93 0.25 179.63 0.25L179.63 0.25Q169.43 0.25 169.43-14.1L169.43-14.1Q169.43-16.3 169.58-18.55L169.58-18.55 167.63-18.55Q166.13-18.55 165.61-19.1 165.08-19.65 165.08-20.85L165.08-20.85Q165.08-23.65 167.33-23.65L167.33-23.65 170.18-23.65Q171.03-29.15 172.78-33.7 174.53-38.25 177.01-40.95 179.48-43.65 182.33-43.65L182.33-43.65Q184.43-43.65 185.63-41.8 186.83-39.95 186.83-37.15L186.83-37.15Q186.83-29.4 180.33-23.65L180.33-23.65 185.93-23.65Q186.73-23.65 187.08-23.3 187.43-22.95 187.43-22L187.43-22Q187.43-18.55 181.78-18.55L181.78-18.55 175.68-18.55Q175.58-16.05 175.58-14.65L175.58-14.65Q175.58-9.45 176.81-7.35 178.03-5.25 180.68-5.25L180.68-5.25Q182.83-5.25 184.48-6.55 186.13-7.85 188.38-10.45L188.38-10.45Q188.98-11.15 189.73-11.15L189.73-11.15ZM180.98-38.85Q180.23-38.85 179.31-36.98 178.38-35.1 177.56-31.78 176.73-28.45 176.18-24.4L176.18-24.4Q179.13-26.95 180.61-30.13 182.08-33.3 182.08-35.9L182.08-35.9Q182.08-38.85 180.98-38.85L180.98-38.85ZM207.38-11.15Q208.03-11.15 208.41-10.55 208.78-9.95 208.78-8.9L208.78-8.9Q208.78-6.9 207.83-5.8L207.83-5.8Q205.68-3.15 203.13-1.45 200.58 0.25 197.28 0.25L197.28 0.25Q187.08 0.25 187.08-14.1L187.08-14.1Q187.08-16.3 187.23-18.55L187.23-18.55 185.28-18.55Q183.78-18.55 183.26-19.1 182.73-19.65 182.73-20.85L182.73-20.85Q182.73-23.65 184.98-23.65L184.98-23.65 187.83-23.65Q188.68-29.15 190.43-33.7 192.18-38.25 194.66-40.95 197.13-43.65 199.98-43.65L199.98-43.65Q202.08-43.65 203.28-41.8 204.48-39.95 204.48-37.15L204.48-37.15Q204.48-29.4 197.98-23.65L197.98-23.65 203.58-23.65Q204.38-23.65 204.73-23.3 205.08-22.95 205.08-22L205.08-22Q205.08-18.55 199.43-18.55L199.43-18.55 193.33-18.55Q193.23-16.05 193.23-14.65L193.23-14.65Q193.23-9.45 194.46-7.35 195.68-5.25 198.33-5.25L198.33-5.25Q200.48-5.25 202.13-6.55 203.78-7.85 206.03-10.45L206.03-10.45Q206.63-11.15 207.38-11.15L207.38-11.15ZM198.63-38.85Q197.88-38.85 196.96-36.98 196.03-35.1 195.21-31.78 194.38-28.45 193.83-24.4L193.83-24.4Q196.78-26.95 198.26-30.13 199.73-33.3 199.73-35.9L199.73-35.9Q199.73-38.85 198.63-38.85L198.63-38.85ZM227.03-11.15Q227.68-11.15 228.05-10.55 228.43-9.95 228.43-8.9L228.43-8.9Q228.43-6.9 227.48-5.8L227.48-5.8Q225.63-3.55 222.25-1.65 218.88 0.25 215.03 0.25L215.03 0.25Q209.78 0.25 206.88-2.6 203.98-5.45 203.98-10.4L203.98-10.4Q203.98-13.85 205.43-16.82 206.88-19.8 209.45-21.55 212.03-23.3 215.28-23.3L215.28-23.3Q218.18-23.3 219.93-21.58 221.68-19.85 221.68-16.9L221.68-16.9Q221.68-13.45 219.2-10.98 216.73-8.5 210.83-7.05L210.83-7.05Q212.08-4.75 215.58-4.75L215.58-4.75Q217.83-4.75 220.7-6.33 223.58-7.9 225.68-10.45L225.68-10.45Q226.28-11.15 227.03-11.15L227.03-11.15ZM214.43-18.4Q212.58-18.4 211.3-16.25 210.03-14.1 210.03-11.05L210.03-11.05 210.03-10.95Q212.98-11.65 214.68-13.05 216.38-14.45 216.38-16.3L216.38-16.3Q216.38-17.25 215.85-17.82 215.33-18.4 214.43-18.4L214.43-18.4Z" opacity="1" transform="matrix(1,0,0,1,0,0)" fill="#3c2c32" class="undefined-text-0" data-fill-palette-color="primary" id="text-0"></path></svg></g></svg></g></svg></g></svg></g></svg></g></svg></g></svg></g><g mask="url(#db34fed8-6d59-4d10-933e-5757dbd8b9ac)"><g transform="matrix(2.452, 0, 0, 2.452, 111.94, 1)"><svg version="1.1" xmlns="http://www.w3.org/2000/svg" xmlns:xlink="http://www.w3.org/1999/xlink" x="0" y="0" viewBox="0 0 70 100" enable-background="new 0 0 70 100" xml:space="preserve" height="100" width="70" class="icon-none" data-fill-palette-color="accent" id="none"><path d="M35 19L35 19H1.633l13.675 81h19.691H35h19.691l13.675-81H35zM13.455 65L8.56 36l52.88 0-4.896 29H13.455z" fill="#fbb168" data-fill-palette-color="accent"></path><path d="M68 9h-6l-2-9H35 10L8 9H2l-2 6h35 35L68 9zM34.857 11.475c-4.419 0-8-1.791-8-4s3.581-4 8-4c4.416 0 8 1.791 8 4S39.273 11.475 34.857 11.475z" fill="#fbb168" data-fill-palette-color="accent"></path></svg></g></g></svg></g><defs><mask id="db34fed8-6d59-4d10-933e-5757dbd8b9ac"><rect width="640" height="400" fill="white"></rect><rect width="348.05760000000004" height="100.23156129802936" fill="black" y="73.48421935098531" x="23.731199999999973" id="transform-me"></rect></mask></defs></svg><rect width="395.52" height="247.2" fill="none" stroke="none" visibility="hidden"></rect></g></svg></g></svg>